<svg xmlns="http://www.w3.org/2000/svg" viewBox="0 0 1293 685" fill="#e8e3d0" role="img" aria-label="mks">
<title>Markus (mks) logo</title>
<g transform="translate(0.000000,685.000000) scale(0.100000,-0.100000)" stroke="none">
<path d="M7174 6836 c-17 -8 -51 -17 -75 -21 -24 -4 -48 -11 -54 -15 -13 -10
-95 -29 -174 -40 -35 -5 -68 -14 -75 -18 -6 -5 -35 -12 -64 -15 -29 -4 -68
-10 -85 -16 -149 -44 -340 -93 -417 -106 -19 -3 -44 -10 -55 -14 -11 -4 -51
-16 -90 -25 -84 -19 -105 -40 -105 -102 0 -58 28 -86 79 -78 33 5 113 -3 246
-25 28 -5 69 -18 91 -29 52 -27 164 -136 164 -160 0 -10 3 -22 8 -26 4 -4 13
-44 21 -89 21 -123 21 -5399 0 -5498 -16 -75 -56 -139 -118 -188 -57 -45 -223
-121 -265 -121 -20 0 -53 -6 -73 -14 -21 -8 -65 -17 -98 -20 -47 -5 -65 -12
-82 -32 -42 -47 -23 -98 49 -135 39 -20 50 -20 242 -13 110 4 221 6 246 5 121
-7 1455 -5 1522 2 l76 9 21 48 c31 72 28 86 -21 103 -93 31 -111 36 -118 32
-11 -7 -173 16 -185 25 -5 4 -30 11 -54 15 -102 17 -230 118 -274 216 -42 96
-47 112 -58 209 -17 144 -24 1246 -8 1338 6 40 15 75 19 77 9 6 110 -94 163
-160 21 -27 84 -97 138 -156 55 -58 114 -124 131 -145 32 -38 173 -186 330
-346 42 -43 105 -111 139 -151 71 -80 94 -105 311 -331 205 -212 396 -405 437
-440 86 -74 315 -216 346 -216 9 0 23 -4 33 -10 9 -5 40 -19 67 -30 28 -12 64
-28 82 -36 17 -8 42 -14 56 -14 13 0 41 -7 60 -15 20 -8 50 -15 67 -15 17 0
41 -5 53 -12 25 -14 242 -29 427 -31 154 -1 474 18 516 31 17 5 67 13 112 17
l81 7 26 43 c14 24 25 55 25 69 0 43 -32 54 -190 67 -80 6 -152 15 -160 19 -8
4 -42 11 -74 15 -33 4 -66 11 -75 16 -18 9 -89 39 -141 59 -19 7 -41 18 -48
23 -7 5 -25 17 -42 26 -43 24 -204 124 -210 130 -3 4 -23 18 -45 32 -22 15
-56 42 -76 60 -20 19 -52 45 -71 59 -56 39 -225 200 -412 389 -94 96 -191 192
-215 215 -24 23 -76 75 -115 115 -39 41 -288 292 -553 556 -266 265 -483 486
-483 491 0 11 225 224 237 224 4 0 42 33 84 73 151 145 225 213 274 251 28 22
87 76 133 120 46 45 91 85 102 91 10 5 66 55 125 110 60 55 117 106 129 114
12 8 50 40 86 71 36 31 103 88 150 126 47 37 87 72 88 76 2 4 8 8 12 8 5 0 29
13 53 30 25 16 55 30 67 30 12 0 34 7 48 14 62 34 102 46 187 55 175 18 210
40 202 124 -2 26 -6 50 -9 52 -2 3 -27 9 -54 13 -63 11 -1764 10 -1785 -1 -19
-9 -53 -84 -51 -112 2 -29 39 -55 79 -55 19 0 42 -4 53 -10 10 -5 69 -12 131
-15 108 -6 183 -20 225 -43 11 -6 31 -13 45 -16 19 -4 28 -15 37 -43 16 -53
-2 -116 -53 -183 -46 -60 -442 -451 -484 -478 -14 -10 -35 -26 -46 -38 -11
-11 -72 -67 -135 -124 -63 -56 -153 -137 -200 -179 -47 -42 -119 -108 -160
-147 -41 -39 -95 -89 -120 -111 -49 -44 -140 -103 -159 -103 -8 0 -11 555 -11
2216 0 1980 -1 2219 -15 2240 -14 22 -23 24 -88 24 -39 -1 -86 -7 -103 -14z"/>
<path d="M2317 4134 c-4 -4 -44 -13 -89 -20 -120 -18 -192 -34 -203 -45 -5 -5
-16 -9 -25 -9 -8 -1 -33 -9 -55 -20 -22 -11 -45 -19 -52 -20 -6 0 -13 -4 -15
-8 -1 -4 -48 -31 -103 -59 -124 -63 -142 -73 -180 -98 -57 -37 -251 -183 -264
-199 -8 -9 -18 -16 -24 -16 -6 0 -19 -7 -29 -17 -17 -15 -18 -15 -19 8 0 13
-5 60 -10 104 -5 44 -13 124 -18 177 -7 84 -12 102 -35 133 -16 20 -35 39 -43
42 -29 11 -257 -28 -278 -48 -5 -5 -18 -9 -28 -9 -25 0 -151 -28 -202 -45 -22
-8 -56 -17 -75 -21 -19 -3 -41 -10 -50 -15 -16 -9 -81 -24 -170 -40 -30 -6
-59 -14 -64 -20 -6 -5 -28 -9 -50 -9 -23 0 -53 -6 -67 -14 -14 -7 -46 -16 -70
-20 -24 -4 -55 -15 -69 -26 -21 -16 -25 -26 -23 -65 2 -57 13 -71 61 -78 239
-35 299 -56 377 -132 31 -30 55 -62 55 -73 0 -12 5 -24 10 -27 6 -3 10 -23 10
-43 0 -20 7 -50 15 -66 13 -25 15 -163 15 -1045 0 -1111 2 -1071 -58 -1154
-50 -71 -215 -137 -342 -137 -85 0 -100 -10 -100 -66 0 -30 7 -56 21 -75 l20
-29 855 0 855 0 24 26 c37 39 37 87 2 119 -16 14 -55 26 -127 39 -58 10 -114
22 -125 26 -11 5 -31 12 -44 15 -40 12 -90 45 -96 66 -4 10 -10 19 -15 19 -11
0 -30 51 -48 130 -13 55 -16 219 -19 1058 l-3 994 22 31 c30 44 159 177 171
177 5 0 43 20 84 45 40 25 79 45 86 45 7 0 21 7 31 15 11 8 26 15 34 15 8 0
28 6 45 14 56 25 240 38 357 26 57 -5 109 -15 114 -20 6 -6 16 -10 24 -10 20
0 102 -42 102 -52 0 -4 9 -8 19 -8 11 0 26 -6 33 -13 7 -7 32 -27 54 -44 49
-38 148 -158 158 -190 4 -13 12 -23 17 -23 5 0 9 -7 9 -16 0 -9 6 -28 14 -42
8 -15 19 -58 26 -97 6 -38 16 -95 21 -125 6 -30 13 -395 16 -810 6 -810 -1
-993 -38 -1069 -18 -39 -92 -111 -113 -111 -6 0 -23 -7 -39 -15 -15 -8 -54
-17 -87 -21 -33 -4 -60 -11 -60 -15 0 -5 -15 -9 -34 -9 -19 0 -42 -7 -50 -16
-23 -22 -21 -96 3 -125 l19 -24 803 -3 802 -2 38 26 c70 48 59 116 -23 145
-27 9 -76 20 -110 24 -135 14 -231 67 -271 148 -60 120 -57 58 -57 1089 0 901
1 948 19 990 32 74 130 187 220 253 23 17 48 36 56 43 7 6 20 12 29 12 8 0 17
4 20 9 9 14 148 79 196 91 139 36 381 36 475 1 116 -42 151 -59 189 -92 12 -9
45 -36 74 -58 28 -23 52 -47 52 -55 0 -7 9 -23 20 -36 11 -13 20 -31 20 -42 0
-10 4 -18 10 -18 5 0 13 -12 16 -27 4 -16 9 -32 13 -38 15 -27 40 -114 41
-143 0 -18 7 -46 15 -62 13 -26 15 -140 12 -922 -4 -958 -4 -969 -55 -1037
-46 -63 -223 -131 -339 -131 -17 0 -42 -9 -57 -21 -22 -17 -26 -28 -26 -69 0
-87 -70 -80 820 -80 l788 0 32 26 c28 24 31 31 28 77 -3 44 -7 52 -33 67 -16
9 -65 20 -107 24 -76 7 -95 13 -153 51 -68 45 -90 81 -112 182 -14 68 -17 200
-24 978 -8 881 -15 1130 -36 1170 -6 11 -13 41 -16 67 -4 26 -11 56 -15 65 -5
10 -27 54 -48 98 -32 66 -58 99 -144 186 -99 100 -162 146 -265 194 -22 10
-52 24 -67 32 -14 7 -33 13 -41 13 -8 0 -28 7 -43 15 -16 8 -50 15 -76 15 -26
0 -49 4 -52 9 -8 12 -65 21 -178 28 -160 9 -321 -2 -365 -25 -12 -7 -40 -12
-63 -12 -22 0 -57 -7 -77 -15 -19 -8 -42 -15 -50 -15 -36 0 -376 -170 -441
-220 -83 -65 -181 -133 -207 -145 -16 -7 -39 -21 -50 -31 -72 -67 -107 -94
-114 -89 -5 2 -12 19 -15 37 -3 18 -20 49 -37 68 -18 19 -43 52 -56 74 -30 46
-167 186 -183 186 -6 0 -26 11 -44 25 -51 39 -168 95 -197 95 -15 0 -30 4 -34
9 -3 6 -27 13 -53 16 -26 3 -55 11 -66 16 -41 23 -440 52 -459 33z"/>
<path d="M11465 4118 c-104 -4 -206 -11 -225 -17 -32 -8 -74 -17 -208 -40 -24
-5 -48 -13 -54 -19 -7 -7 -19 -12 -27 -12 -9 0 -29 -7 -45 -15 -15 -8 -34 -15
-41 -15 -8 0 -46 -17 -87 -37 -256 -129 -480 -402 -509 -621 -20 -150 -21
-226 -4 -327 9 -53 20 -105 25 -114 4 -9 20 -43 35 -76 49 -108 140 -229 230
-305 25 -21 86 -68 141 -107 22 -17 112 -65 164 -90 30 -13 96 -45 145 -69 50
-24 95 -44 101 -44 7 0 25 -7 40 -15 16 -8 37 -15 46 -15 9 0 29 -6 45 -14 36
-18 86 -39 143 -61 25 -10 59 -23 75 -31 17 -7 46 -20 67 -28 20 -9 43 -16 51
-16 9 0 28 -6 44 -14 15 -8 39 -19 53 -25 14 -5 46 -19 72 -30 26 -12 52 -21
58 -21 9 0 53 -24 105 -58 11 -7 34 -19 50 -27 17 -8 43 -25 59 -39 16 -15 33
-26 38 -26 25 0 96 -108 121 -187 18 -56 24 -228 8 -237 -5 -3 -12 -17 -15
-31 -22 -87 -168 -231 -254 -249 -17 -4 -34 -12 -37 -17 -4 -5 -15 -9 -27 -9
-11 0 -34 -6 -51 -14 -59 -27 -152 -39 -287 -39 -124 0 -241 14 -265 33 -5 4
-30 11 -55 15 -24 4 -55 14 -68 23 -12 8 -25 12 -28 9 -7 -7 -109 45 -186 96
-159 102 -349 331 -481 577 -42 79 -65 93 -127 78 -87 -21 -96 -45 -75 -187 8
-56 15 -154 16 -218 0 -65 5 -161 10 -213 5 -52 12 -120 15 -150 8 -88 11 -96
62 -133 69 -49 122 -72 272 -118 36 -11 85 -26 110 -34 25 -8 56 -15 71 -15
14 0 29 -4 35 -9 9 -9 79 -21 234 -42 41 -5 98 -15 125 -21 65 -15 469 -15
555 0 36 6 99 16 140 21 101 13 174 27 196 39 11 5 46 18 79 27 103 31 172 63
253 117 24 15 45 28 48 28 8 0 165 120 203 154 91 85 231 307 251 400 5 23 14
63 20 89 15 61 10 354 -7 382 -6 11 -22 47 -35 80 -13 33 -33 78 -45 100 -13
22 -27 50 -33 63 -12 29 -215 232 -230 232 -7 0 -29 13 -49 28 -51 40 -206
132 -222 132 -8 0 -54 20 -104 45 -49 24 -98 45 -108 45 -9 0 -25 4 -35 9 -55
28 -111 51 -124 51 -8 0 -18 4 -24 9 -5 5 -29 13 -54 19 -25 6 -70 20 -100 32
-30 12 -66 24 -80 27 -14 3 -34 12 -45 19 -11 8 -32 14 -47 14 -15 0 -29 4
-32 9 -3 5 -21 12 -40 15 -20 4 -48 13 -63 21 -15 8 -33 15 -40 15 -12 0 -152
71 -213 109 -19 11 -47 27 -61 34 -75 35 -161 133 -192 217 -25 66 -23 209 2
259 17 33 86 127 116 157 18 18 198 103 254 119 61 17 425 22 435 6 4 -5 29
-12 58 -16 29 -4 59 -11 68 -16 8 -4 40 -20 71 -34 31 -14 64 -34 74 -45 10
-11 23 -20 29 -20 31 0 246 -253 246 -289 0 -8 11 -28 23 -45 13 -17 32 -49
42 -71 60 -138 58 -135 97 -146 47 -12 86 -3 121 29 26 25 27 29 26 131 0 58
-4 138 -9 176 -5 39 -14 153 -21 255 -13 208 -27 255 -77 266 -15 3 -38 10
-52 15 -29 11 -100 26 -185 41 -33 6 -69 14 -80 19 -34 14 -297 45 -435 51
-47 2 -170 0 -275 -4z"/>
</g>
</svg>
